<?xml version="1.0" standalone="no"?>
<!DOCTYPE svg PUBLIC "-//W3C//DTD SVG 20010904//EN"
 "http://www.w3.org/TR/2001/REC-SVG-20010904/DTD/svg10.dtd">
<svg version="1.0" xmlns="http://www.w3.org/2000/svg"
 width="438.000000pt" height="438.000000pt" viewBox="0 0 438.000000 438.000000"
 preserveAspectRatio="xMidYMid meet">
<metadata>
Created by potrace 1.14, written by Peter Selinger 2001-2017
</metadata>
<g transform="tranamber(0.000000,438.000000) scale(0.100000,-0.100000)"
fill="#000000" stroke="none">
<path d="M1269 4273 c0 -16 -1 -53 -2 -83 l-2 -55 -162 -1 c-90 0 -165 -3
-168 -6 -3 -3 -6 -42 -6 -87 l-1 -81 -84 0 -84 0 0 -85 0 -85 -80 2 c-44 1
-82 -1 -85 -4 -4 -3 -7 -39 -8 -80 l-2 -73 -72 0 c-39 0 -75 -3 -78 -7 -4 -4
-7 -43 -7 -88 l1 -80 -85 0 -84 0 0 -170 0 -170 -85 0 -85 0 -1 -37 c-3 -255
0 -1806 5 -1810 3 -4 42 -6 86 -5 l80 2 0 -170 c0 -155 2 -170 18 -171 9 0 46
-2 82 -2 l65 -2 2 -70 c1 -38 2 -76 2 -82 1 -9 24 -13 82 -13 l80 0 -2 -79
c-2 -44 0 -83 4 -87 4 -4 43 -7 87 -6 l80 2 0 -80 0 -80 28 -1 c15 -1 52 -2
82 -2 l55 -2 0 -83 0 -82 173 0 174 0 -2 -42 c-1 -24 -1 -62 -1 -86 l1 -43
195 3 c125 2 195 -1 195 -7 0 -5 4 -4 9 3 9 15 20 15 39 0 6 -6 12 -7 12 -2 0
12 193 11 202 -1 5 -7 8 -7 8 0 0 11 162 11 179 0 6 -3 11 -3 11 2 0 10 52 9
68 -1 7 -4 12 -4 12 1 0 4 207 7 460 6 l460 -2 0 85 0 84 170 0 170 0 0 85 0
84 81 0 c44 0 83 1 85 4 2 2 5 37 7 78 l2 74 74 2 c41 1 76 5 78 7 3 3 5 41 4
85 l-1 81 85 0 85 0 0 84 0 84 81 1 c45 0 84 2 86 5 3 2 5 78 6 168 l2 163 30
2 c17 0 54 2 83 2 l52 1 0 1010 0 1010 -27 1 c-16 1 -52 2 -80 1 -32 0 -54 5
-54 12 -1 6 -3 38 -4 71 -1 33 -3 66 -4 73 -1 8 -25 12 -86 12 l-85 0 0 85 c0
61 -4 85 -12 86 -7 0 -44 2 -83 2 l-70 2 -1 73 c0 39 -4 75 -8 79 -4 4 -40 8
-79 8 l-72 0 -1 65 c-1 36 -2 73 -3 83 -1 15 -12 17 -86 17 l-85 0 0 85 0 85
-27 1 c-16 1 -92 1 -170 1 l-143 0 0 84 0 84 -925 0 -925 0 -1 -27z"/>
</g>
</svg>
